<?xml version="1.0" encoding="UTF-8"?><svg id="Capa_1" xmlns="http://www.w3.org/2000/svg" viewBox="0 0 540 557"><defs><style>.cls-1{fill:#040404;}.cls-2{fill:#336791;}.cls-3{fill:#fefefe;}</style></defs><path class="cls-3" d="M305.9879,556.9035c-100.6303,0-201.2606-.0223-301.8908,.0955-3.4226,.004-4.0967-.6712-4.0938-4.094C.1153,420.2847,.0983,287.6644,.0983,155.0441c.798,.1498,.9605,.7278,1.0278,1.4293,2.3707,24.722,7.3369,48.9994,13.0699,73.1031,9.7685,41.0703,20.9755,81.7196,38.8466,120.1722,8.6507,18.6133,18.401,36.537,33.8585,50.6649,19.9631,18.246,43.5119,19.9738,65.4238,4.3665,2.4376-1.7363,3.4185-1.1387,5.1352,.591,4.7471,4.7831,10.3875,8.3146,16.698,10.6345,23.6093,8.6796,47.371,9.7838,71.1927,.9159,2.9344-1.0923,4.0061-1.144,4.0067,2.4817,.0014,7.3229,.3861,14.6483,.7146,21.9681,1.136,25.3083,2.9153,50.4663,12.7019,74.3521,5.9758,14.5849,14.2473,27.0854,28.4445,34.7244,4.7157,2.5373,9.8346,4.3252,14.7693,6.4557Z"/><path class="cls-1" d="M305.9879,556.9035c-4.9346-2.1305-10.0535-3.9184-14.7693-6.4557-14.1972-7.6389-22.4687-20.1394-28.4445-34.7244-9.7866-23.8858-11.5658-49.0438-12.7019-74.3521-.3286-7.3198-.7133-14.6452-.7146-21.9681-.0007-3.6257-1.0724-3.574-4.0067-2.4817-23.8217,8.8679-47.5834,7.7637-71.1927-.9159-6.3105-2.32-11.9509-5.8514-16.698-10.6345-1.7167-1.7297-2.6976-2.3273-5.1352-.591-21.9118,15.6074-45.4607,13.8795-65.4238-4.3665-15.4575-14.1279-25.2078-32.0517-33.8585-50.6649-17.8711-38.4526-29.0782-79.1019-38.8466-120.1722-5.733-24.1037-10.6992-48.3811-13.0699-73.1031-.0673-.7015-.2298-1.2796-1.0278-1.4293v-3.9986c1.2679-5.9979,1.16-11.9958,0-17.9937v-1.9993c1.5891-.5571,.9173-1.9471,1.0062-2.9732,.7037-8.124,1.3771-16.2504,2.9424-24.2681,4.8522-24.8528,14.4753-47.3237,33.177-65.0668C59.2151,17.8805,86.2217,9.4966,115.7965,8.0024c31.8115-1.6072,62.5718,4.164,92.757,13.7253,2.4299,.7697,4.6635,1.9457,7.5461,.3108,25.2399-14.3154,52.6214-17.2729,81.052-15.5289,12.2722,.7528,24.5115,5.2558,36.9965,.5618,4.4546-1.6748,9.4306-1.9115,14.1007-3.0766,7.1589-1.786,14.6896-1.4306,21.716-3.8965h36.9866c3.3874,1.9954,7.268,1.3744,10.9013,1.9032,41.884,6.0955,76.859,24.5708,104.049,57.3396,7.6598,9.2315,11.9847,19.8285,14,31.4805,3.8355,22.1763,1.4488,44.1786-2.6006,66.0039-8.5735,46.2096-24.6037,89.8936-45.7821,131.7432-5.2989,10.4709-10.986,20.7452-16.4818,31.0854,.9713,.9147,1.9871,.4459,2.9154,.4153,8.8496-.2924,17.4788-2.1464,26.1452-3.7375,16.2368-2.9808,32.7292-.1588,39.8055,19.649v14.9948c-2.0939,3.4878-3.958,7.1407-6.3238,10.433-7.7607,10.7996-18.5013,18.0904-29.9255,24.3781-22.389,12.3225-46.7662,15.5413-71.854,14.8665-3.204-.0862-4.0209,.7259-4.0821,3.6738-.1033,4.9738-.5325,9.9407-.8208,14.9107-1.3406,23.1064-3.4581,46.0818-10.0199,68.4425-10.0729,34.3258-31.118,57.3173-66.8041,65.4556-5.0554,1.1529-10.065,2.5068-15.0958,3.7677h-28.9895Zm-45.1404-168.1554c1.1925,1.7629,.7003,3.2954,.6996,4.7201-.0131,25.9884,.3423,51.9602,2.4217,77.8873,1.3432,16.7476,4.1563,32.9767,13.8747,47.2769,8.6438,12.719,20.0216,21.0134,35.4775,23.4922,15.6389,2.5082,30.4151-.9654,45.0463-5.8214,23.6715-7.8564,37.8696-24.2644,43.5765-48.3427,3.3841-14.2778,5.1272-28.8204,6.9834-43.3374,2.5331-19.8105,4.8372-39.6503,7.2872-59.4717,.1792-1.45-.2643-3.592,2.6453-2.9017,15.2156,3.6099,30.4198,2.266,45.6049-.2917,21.319-3.591,39.8451-12.6284,54.6088-28.6197,4.3147-4.6735,7.2636-10.3303,3.8281-16.7871-3.4477-6.48-9.7791-6.6646-16.1221-6.2793-.6595,.0401-1.307,.2511-1.9644,.3558-8.0491,1.2827-16.0639,2.8859-24.1574,3.7586-10.6014,1.1431-21.2745,1.8016-31.6531-1.7532-2.9197-1-4.7819-1.7106-2.22-5.7027,26.9907-42.0591,47.6679-87.0551,61.5928-135.0771,7.761-26.7652,13.5529-53.9363,13.2654-81.974-.1422-13.8704-1.5762-27.7446-10.6023-39.276-18.5063-23.6427-42.2408-39.8718-70.98-48.4091-36.4834-10.8378-73.0424-8.9996-109.3481,.9975-6.2751,1.7279-12.0627,2.3219-18.378,.8701-5.6543-1.2998-11.48-2.0502-17.2725-2.5195-25.3497-2.0539-49.9697,.5057-72.319,13.7467-5.2584,3.1154-9.4202,3.3315-15.0959,1.475-34.6199-11.3242-69.8923-18.3133-106.513-12.6197-37.4754,5.8265-63.9468,25.8093-76.896,62.0001-8.3911,23.4516-10.0106,47.9215-7.4776,72.4493,3.079,29.8153,9.8809,59.0131,17.3957,87.9987,9.516,36.7042,20.5591,72.8972,37.9766,106.7975,6.6425,12.9286,14.1972,25.2424,25.1666,35.0838,15.9131,14.2768,34.0894,14.0987,49.5084-.5973,3.0055-2.8645,5.778-5.998,8.4559-9.1775,12.3421-14.6542,25.0502-28.9831,38.0249-43.0774,1.2852-1.3961,2.1881-3.1255,4.8397-1.6801,7.9975,4.3593,16.6983,6.4666,25.7625,7.0619,1.8934,.1243,3.1913,.5485,1.6122,2.5676-6.2488,7.9899-12.0596,16.5345-23.2205,18.383-3.1072,.5146-6.1596,1.3747-9.224,2.1296-7.7251,1.9029-15.6884,3.1072-22.579,7.5103-8.7284,5.5775-9.7343,14.5075-2.5449,21.8599,2.2476,2.2986,4.8066,4.128,7.6928,5.4499,18.9185,8.6643,38.4789,9.8541,58.4414,4.5181,10.0205-2.6784,18.8474-7.8703,26.7789-14.6733Z"/><path class="cls-3" d="M334.9775,556.9035c5.0308-1.2609,10.0404-2.6147,15.0958-3.7677,35.6861-8.1383,56.7312-31.1298,66.8041-65.4556,6.5617-22.3607,8.6792-45.3361,10.0199-68.4425,.2883-4.97,.7176-9.937,.8208-14.9107,.0612-2.9479,.8781-3.76,4.0821-3.6738,25.0877,.6748,49.4649-2.544,71.854-14.8665,11.4242-6.2877,22.1648-13.5785,29.9255-24.3781,2.3658-3.2923,4.2299-6.9453,6.3238-10.433,0,67.3098-.0333,134.6196,.0965,201.9292,.0066,3.4235-.6718,4.1019-4.0952,4.0952-66.9756-.1299-133.9515-.0965-200.9273-.0965Z"/><path class="cls-3" d="M539.9035,335.9808c-7.0764-19.8078-23.5688-22.6298-39.8055-19.649-8.6664,1.5911-17.2956,3.4451-26.1452,3.7375-.9283,.0307-1.9441,.4995-2.9154-.4153,5.4957-10.3403,11.1829-20.6146,16.4818-31.0854,21.1784-41.8496,37.2086-85.5335,45.7821-131.7432,4.0494-21.8253,6.436-43.8276,2.6006-66.0039-2.0153-11.6519-6.3402-22.249-14-31.4805-27.19-32.7688-62.165-51.2441-104.049-57.3396-3.6333-.5288-7.5139,.0922-10.9013-1.9032C449.936,.0983,492.9206,.1498,535.9046,.0002c3.4246-.0119,4.0978,.674,4.0942,4.0968-.1156,110.6279-.0952,221.2558-.0952,331.8838Z"/><path class="cls-3" d="M369.9648,.0983c-7.0265,2.4659-14.5572,2.1106-21.716,3.8965-4.6701,1.1651-9.6461,1.4018-14.1007,3.0766-12.485,4.694-24.7244,.191-36.9965-.5618-28.4305-1.744-55.8121,1.2135-81.052,15.5289-2.8826,1.635-5.1163,.4589-7.5461-.3108-30.1852-9.5613-60.9455-15.3325-92.757-13.7253-29.5748,1.4942-56.5814,9.8781-78.5725,30.742C18.5222,56.4876,8.8992,78.9584,4.047,103.8112c-1.5654,8.0177-2.2388,16.144-2.9424,24.2681-.0889,1.0261,.5829,2.4161-1.0062,2.9732C.0983,88.7339,.1506,46.4152,.0002,4.0972-.012,.6726,.6743,0,4.097,.0031,126.0529,.1167,248.0089,.0983,369.9648,.0983Z"/><path class="cls-3" d="M.0983,133.0518c1.16,5.9979,1.2679,11.9958,0,17.9937v-17.9937Z"/><path class="cls-3" d="M260.8475,388.748c-7.9315,6.803-16.7584,11.9949-26.7789,14.6733-19.9625,5.336-39.5229,4.1462-58.4414-4.5181-2.8862-1.3219-5.4452-3.1513-7.6928-5.4499-7.1894-7.3525-6.1835-16.2825,2.5449-21.8599,6.8906-4.4031,14.854-5.6074,22.579-7.5103,3.0644-.7549,6.1169-1.615,9.224-2.1296,11.1609-1.8486,16.9717-10.3932,23.2205-18.383,1.5791-2.0191,.2813-2.4432-1.6122-2.5676-9.0642-.5953-17.765-2.7026-25.7625-7.0619-2.6516-1.4454-3.5545,.284-4.8397,1.6801-12.9747,14.0943-25.6828,28.4232-38.0249,43.0774-2.6779,3.1796-5.4505,6.313-8.4559,9.1775-15.4189,14.696-33.5952,14.8741-49.5084,.5973-10.9694-9.8414-18.5241-22.1551-25.1666-35.0838-17.4174-33.9003-28.4606-70.0933-37.9766-106.7975-7.5148-28.9856-14.3167-58.1834-17.3957-87.9987-2.533-24.5278-.9135-48.9977,7.4776-72.4493C37.1873,49.9533,63.6587,29.9705,101.1341,24.144c36.6207-5.6936,71.8931,1.2955,106.513,12.6197,5.6757,1.8565,9.8375,1.6404,15.0959-1.475,22.3493-13.241,46.9693-15.8006,72.319-13.7467,5.7925,.4693,11.6182,1.2197,17.2725,2.5195,6.3153,1.4517,12.103,.8578,18.378-.8701,36.3057-9.9971,72.8647-11.8353,109.3481-.9975,28.7392,8.5372,52.4736,24.7664,70.98,48.4091,9.0262,11.5314,10.4601,25.4056,10.6023,39.276,.2875,28.0377-5.5044,55.2088-13.2654,81.974-13.9248,48.022-34.602,93.018-61.5928,135.0771-2.5618,3.9921-.6997,4.7027,2.22,5.7027,10.3785,3.5548,21.0517,2.8963,31.6531,1.7532,8.0935-.8727,16.1083-2.4759,24.1574-3.7586,.6574-.1048,1.3049-.3158,1.9644-.3558,6.343-.3853,12.6744-.2007,16.1221,6.2793,3.4354,6.4568,.4866,12.1136-3.8281,16.7871-14.7637,15.9913-33.2898,25.0288-54.6088,28.6197-15.1851,2.5577-30.3893,3.9017-45.6049,.2917-2.9096-.6903-2.4661,1.4516-2.6453,2.9017-2.4499,19.8214-4.7541,39.6612-7.2872,59.4717-1.8562,14.517-3.5994,29.0596-6.9834,43.3374-5.707,24.0783-19.905,40.4863-43.5765,48.3427-14.6312,4.856-29.4074,8.3296-45.0463,5.8214-15.4559-2.4788-26.8337-10.7732-35.4775-23.4922-9.7184-14.3001-12.5315-30.5292-13.8747-47.2769-2.0794-25.9272-2.4348-51.899-2.4217-77.8873,.0007-1.4246,.4928-2.9572-.6996-4.7201Zm-87.1378-227.9208c.8385,0,1.2051,.0987,1.4806-.018,.9166-.3882,1.8092-.8367,2.6955-1.2922,12.4019-6.3751,25.4223-10.7302,39.3867-11.9028,22.8729-1.9207,40.9072,8.1415,46.6383,31.8726,1.4816,6.1351,2.5326,12.3827,3.5823,18.6122,5.6624,33.6028,3.8318,66.2877-11.6442,97.4139-4.7404,9.5343-8.0127,19.6957-11.3088,29.8208-.9007,2.7669-.7554,3.6708,2.6206,3.6599,17.3381-.0564,31.4329,15.3063,30.6685,33.1482-1.6416,38.3199-.9181,76.5924,2.2305,114.8191,1.0876,13.2044,4.8199,25.4645,12.9398,36.1313,4.8865,6.4192,11.1244,10.9012,19.0377,12.9213,10.3324,2.6376,20.4653,1.0656,30.6089-1.2113,22.0661-4.9532,38.6292-15.9745,43.9387-39.5178,.8774-3.8906,1.8146-7.7824,2.4012-11.7217,5.7844-38.8416,11.2683-77.7169,13.923-116.9369,.872-12.8834,6.8258-22.5004,19.5043-26.9032,3.439-1.1943,2.4615-2.4762,.8799-4.4358-5.7545-7.1296-11.5077-14.3084-15.4004-22.6641-5.9086-12.6827-13.0602-24.6955-19.5303-37.0734-5.5477-10.6132-10.9014-21.3281-15.2256-32.5085-6.0303-15.5917-10.9465-31.4479-10.1827-48.4717,.8074-17.9944,10.9244-31.1653,28.0739-36.612,10.664-3.3868,21.6445-3.632,32.6358-2.8009,4.8122,.3639,4.8166-1.1832,3.2958-4.8771-24.0363-58.3823-78.9536-109.5737-158.7948-103.1529-24.8172,1.9958-45.6689,12.4081-61.7878,31.7088-15.1092,18.0917-23.1581,39.414-28.3307,62.0315-2.2503,9.8397-3.9581,19.7684-4.3368,29.9606ZM127.4938,37.827c-7.3298-.0019-14.6571,.1402-21.9188,1.2441-21.9543,3.3377-41.2696,11.6014-54.9808,30.0019-12.1591,16.3177-16.6487,35.2577-18.4901,55.0663-1.8657,20.0699,.1801,39.8681,3.9688,59.5693,9.4348,49.0613,21.5978,97.3461,40.8859,143.5918,6.7435,16.1685,14.5056,31.8263,26.1686,45.1237,12.9326,14.745,24.0695,14.6392,37.0737-.0167,.5526-.6227,1.1129-1.2395,1.6446-1.8798,12.1288-14.6067,24.6099-28.911,37.6306-42.7228,2.9295-3.1075,2.4797-4.6101-.3463-7.4169-18.2692-18.1451-26.1928-40.4325-23.5021-65.8016,2.2384-21.1041,3.5814-42.1883,2.0976-63.2943-1.5474-22.0096,.7356-43.573,5.4599-64.9156,6.0166-27.1809,16.6025-52.278,36.0966-72.8319,3.1309-3.3011,.1658-3.189-1.7302-3.7825-22.8123-7.1408-46.0348-11.8849-70.0579-11.9348Zm221.1743-3.0035c1.9854,1.131,2.8129,1.6597,3.6878,2.0927,43.4721,21.5137,72.266,56.2041,90.1011,100.6351,2.4016,5.983,3.8503,12.1779,3.8213,18.8938-.0593,13.7424-2.3569,27.1766-4.2669,40.6795-2.5096,17.7414,.7257,35.1932,2.4211,52.736,1.9848,20.5383,.7447,40.6065-9.5681,59.178-1.0503,1.8914-2.6853,4.2075,.1121,5.4433,2.1327,.9421,2.5835-1.9626,3.4132-3.3009,22.6426-36.5211,40.282-75.3348,52.8594-116.4194,8.3025-27.1203,14.3254-54.5832,14.9921-83.1988,.4487-19.26-6.9323-33.8007-20.9469-46.3396-27.2387-24.3702-59.3999-34.5077-95.3009-34.5985-13.4506-.034-26.8266,.8969-41.3254,4.1988Zm-93.7255,195.0048c-.6401-17.5276-2.8449-32.156-6.1201-46.6052-3.0435-13.4269-11.5436-20.1227-25.2384-20.1876-16.8467-.0798-31.7532,6.114-46.0496,14.3619-3.6285,2.0934-4.9038,4.64-4.5515,8.8506,1.7245,20.6126,1.4233,41.2287-1.0375,61.771-1.1336,9.4633-1.8602,18.8606,.0788,28.2912,5.5368,26.9281,26.6481,46.7673,52.136,49.1867,3.0665,.2911,4.2813-.3752,5.1931-3.4945,3.7313-12.7649,8.5221-25.1637,14.1415-37.2237,8.522-18.2893,12.2722-37.5029,11.4477-54.9505Zm167.8366,67.5932c1.9589-2.2255,2.4041-4.5164,3.1286-6.6377,5.0303-14.7281,4.2947-29.8146,2.5158-44.912-1.7914-15.2033-3.7938-30.3933-2.3295-45.7393,1.1205-11.743,3.6619-23.312,4.3864-35.1188,.1697-2.7662-.3819-3.8139-3.3015-4.0584-7.9781-.6681-15.9084-.9609-23.8921,.0411-17.6569,2.216-26.3133,13.1511-24.8119,30.875,.8659,10.2216,3.4974,19.9388,6.932,29.4876,7.5089,20.8754,18.2981,40.1666,28.9363,59.5314,2.9153,5.3067,5.5157,10.7863,8.4358,16.5311Zm-242.3494,86.3547c2.0746,1.1316,3.1846,1.7977,4.3453,2.3589,3.7783,1.8271,7.8687,2.666,11.941,3.3964,24.5696,4.407,45.9185-.7493,61.8982-21.2992,5.7721-7.4228,2.8528-18.581-5.6467-22.6138-3.7932-1.7997-7.0922-1.5719-9.8915,1.6238-3.5028,3.9986-7.1261,7.9269-10.2611,12.2052-6.8061,9.2882-15.8923,14.7686-26.9145,17.6383-8.1461,2.1209-16.5665,3.2311-25.4706,6.6903Zm322.1732-36.4913c-9.0212,1.2282-17.9473,2.5947-26.9577,3.2159-12.5633,.8662-25.1754,.8339-36.4211-5.5682-6.3248-3.6006-11.084-1.39-15.9555,1.8325-3.7708,2.4944-6.9437,13.0128-5.0775,17.4029,1.7773,4.1808,6.3652,3.565,9.969,4.0279,13.6972,1.7591,27.1797,.1381,40.5473-2.9952,12.8327-3.0079,24.0426-9.0374,33.8956-17.9156Z"/><path class="cls-2" d="M173.7097,160.8273c.3787-10.1922,2.0865-20.1209,4.3368-29.9606,5.1726-22.6175,13.2215-43.9398,28.3307-62.0315,16.1189-19.3007,36.9706-29.7131,61.7878-31.7088,79.8411-6.4208,134.7585,44.7706,158.7948,103.1529,1.5208,3.6939,1.5164,5.241-3.2958,4.8771-10.9913-.831-21.9718-.5859-32.6358,2.8009-17.1495,5.4466-27.2665,18.6175-28.0739,36.612-.7638,17.0237,4.1525,32.88,10.1827,48.4717,4.3241,11.1803,9.6778,21.8952,15.2256,32.5085,6.4701,12.3779,13.6217,24.3907,19.5303,37.0734,3.8927,8.3557,9.6459,15.5345,15.4004,22.6641,1.5816,1.9596,2.5591,3.2415-.8799,4.4358-12.6785,4.4028-18.6322,14.0197-19.5043,26.9032-2.6546,39.22-8.1386,78.0953-13.923,116.9369-.5866,3.9393-1.5238,7.8311-2.4012,11.7217-5.3095,23.5432-21.8726,34.5646-43.9387,39.5178-10.1435,2.2769-20.2765,3.8489-30.6089,1.2113-7.9133-2.0202-14.1513-6.5021-19.0377-12.9213-8.12-10.6669-11.8523-22.9269-12.9398-36.1313-3.1486-38.2268-3.872-76.4993-2.2305-114.8191,.7643-17.8419-13.3304-33.2046-30.6685-33.1482-3.376,.011-3.5214-.893-2.6206-3.6599,3.2961-10.1251,6.5684-20.2865,11.3088-29.8208,15.476-31.1263,17.3066-63.8111,11.6442-97.4139-1.0497-6.2295-2.1007-12.4771-3.5823-18.6122-5.7311-23.7311-23.7654-33.7933-46.6383-31.8726-13.9643,1.1726-26.9848,5.5278-39.3867,11.9028-.8863,.4556-1.7789,.904-2.6955,1.2922-.2755,.1167-.6422,.018-1.4806,.018Z"/><path class="cls-2" d="M127.4954,37.8278c24.0216,.0491,47.2441,4.7932,70.0564,11.934,1.896,.5935,4.8611,.4815,1.7302,3.7825-19.4941,20.5539-30.08,45.651-36.0966,72.8319-4.7243,21.3427-7.0073,42.906-5.4599,64.9156,1.4839,21.106,.1408,42.1902-2.0976,63.2943-2.6907,25.3691,5.2329,47.6566,23.5021,65.8016,2.826,2.8068,3.2758,4.3094,.3463,7.4169-13.0207,13.8119-25.5019,28.1161-37.6306,42.7228-.5317,.6403-1.0921,1.2571-1.6446,1.8798-13.0042,14.6559-24.141,14.7617-37.0737,.0167-11.663-13.2974-19.425-28.9552-26.1686-45.1237-19.2881-46.2457-31.4511-94.5305-40.8859-143.5918-3.7886-19.7011-5.8344-39.4994-3.9688-59.5693,1.8414-19.8086,6.331-38.7486,18.4901-55.0663,13.7112-18.4005,33.0264-26.6642,54.9808-30.0019,7.2617-1.104,14.589-1.246,21.9203-1.2434Z"/><path class="cls-2" d="M348.6681,34.8235c14.4988-3.3018,27.8748-4.2327,41.3254-4.1988,35.901,.0907,68.0622,10.2282,95.3009,34.5985,14.0147,12.5389,21.3956,27.0796,20.9469,46.3396-.6667,28.6155-6.6896,56.0784-14.9921,83.1988-12.5775,41.0845-30.2169,79.8983-52.8594,116.4194-.8297,1.3383-1.2806,4.243-3.4132,3.3009-2.7974-1.2358-1.1624-3.5519-.1121-5.4433,10.3128-18.5715,11.553-38.6397,9.5681-59.178-1.6953-17.5427-4.9307-34.9945-2.4211-52.736,1.91-13.5029,4.2076-26.9371,4.2669-40.6795,.029-6.7159-1.4197-12.9108-3.8213-18.8938-17.8351-44.4311-46.629-79.1215-90.1011-100.6351-.8749-.433-1.7025-.9616-3.6878-2.0927Z"/><path class="cls-2" d="M254.9427,229.8283c.8245,17.4475-2.9257,36.6611-11.4477,54.9505-5.6194,12.06-10.4102,24.4588-14.1415,37.2237-.9118,3.1193-2.1266,3.7855-5.1931,3.4945-25.4879-2.4194-46.5992-22.2586-52.136-49.1867-1.939-9.4306-1.2124-18.8279-.0788-28.2912,2.4607-20.5423,2.762-41.1584,1.0375-61.771-.3523-4.2106,.923-6.7572,4.5515-8.8506,14.2963-8.2479,29.2029-14.4417,46.0496-14.3619,13.6948,.0649,22.1949,6.7607,25.2384,20.1876,3.2752,14.4492,5.48,29.0775,6.1201,46.6052Zm-29.9317-58.0611c-2.9959-.0198-5.9415,.1685-8.7502,1.4453-3.1631,1.438-3.8576,3.5933-2.6744,6.8146,4.028,10.9668,18.362,13.8317,26.0786,5.1438,3.3794-3.8049,3.0134-7.1652-1.3541-9.9044-4.026-2.525-8.5629-3.4766-13.2999-3.4994Z"/><path class="cls-2" d="M422.7792,297.4215c-2.92-5.7448-5.5205-11.2244-8.4358-16.5311-10.6381-19.3648-21.4274-38.656-28.9363-59.5314-3.4347-9.5488-6.0662-19.266-6.932-29.4876-1.5014-17.7239,7.155-28.659,24.8119-30.875,7.9837-1.002,15.914-.7092,23.8921-.0411,2.9196,.2445,3.4712,1.2922,3.3015,4.0584-.7245,11.8069-3.2659,23.3759-4.3864,35.1188-1.4644,15.346,.538,30.536,2.3295,45.7393,1.7789,15.0974,2.5146,30.1839-2.5158,44.912-.7245,2.1213-1.1697,4.4122-3.1286,6.6377Zm-15.1248-129.498c-6.0385-.1979-10.5469,.7279-14.6158,3.2043-3.7172,2.2623-4.0251,4.8869-1.1596,8.1477,4.7112,5.3612,12.4241,6.1783,18.4001,1.7235,3.0639-2.284,6.6203-5.0951,5.415-9.2573-1.2219-4.2191-5.7583-3.6107-8.0396-3.8182Z"/><path class="cls-2" d="M180.4298,383.7762c8.9041-3.4592,17.3244-4.5694,25.4706-6.6903,11.0222-2.8697,20.1084-8.3501,26.9145-17.6383,3.135-4.2783,6.7584-8.2066,10.2611-12.2052,2.7994-3.1956,6.0984-3.4235,9.8915-1.6238,8.4995,4.0327,11.4188,15.1909,5.6467,22.6138-15.9797,20.5498-37.3286,25.7061-61.8982,21.2992-4.0723-.7304-8.1626-1.5694-11.941-3.3964-1.1607-.5613-2.2707-1.2274-4.3453-2.3589Z"/><path class="cls-2" d="M502.603,347.285c-9.8529,8.8782-21.0629,14.9077-33.8956,17.9156-13.3676,3.1333-26.8501,4.7543-40.5473,2.9952-3.6037-.4628-8.1917,.1529-9.969-4.0279-1.8662-4.3901,1.3067-14.9085,5.0775-17.4029,4.8715-3.2225,9.6307-5.4331,15.9555-1.8325,11.2457,6.4021,23.8578,6.4344,36.4211,5.5682,9.0104-.6212,17.9365-1.9876,26.9577-3.2159Z"/><path class="cls-3" d="M225.011,171.7672c4.737,.0228,9.274,.9744,13.2999,3.4994,4.3675,2.7391,4.7335,6.0995,1.3541,9.9044-7.7166,8.688-22.0506,5.8231-26.0786-5.1438-1.1832-3.2213-.4887-5.3766,2.6744-6.8146,2.8086-1.2769,5.7542-1.4651,8.7502-1.4453Z"/><path class="cls-3" d="M407.6544,167.9235c2.2813,.2074,6.8177-.401,8.0396,3.8182,1.2053,4.1622-2.3511,6.9733-5.415,9.2573-5.976,4.4548-13.6889,3.6377-18.4001-1.7235-2.8655-3.2608-2.5575-5.8854,1.1596-8.1477,4.069-2.4764,8.5773-3.4022,14.6158-3.2043Z"/></svg>